<svg width="144" height="144" version="1.1" xmlns="http://www.w3.org/2000/svg" desc="Created with imagetracer.js version 1.2.6" ><path fill="rgb(0,0,0)" stroke="rgb(0,0,0)" stroke-width="1" opacity="0" d="M 0 0 L 144 0 L 144 144 L 0 144 L 0 0 Z M 34 21 L 32 22 Q 28 23 29 27 L 12 27 L 8 29 L 5 34 L 6 43 L 15 70 L 15 75 L 5 106 L 6 114 L 12 117 L 26 117 L 34 123 L 41 122 L 48 113 L 54 117 L 80 117 L 84 116 Q 87 114 87 109 Q 90 108 89 113 Q 91 117 99 117 L 106 123 L 111 123 L 119 117 Q 125 118 127 115 L 129 112 L 136 84 L 139 77 L 139 68 L 132 47 L 129 33 L 127 29 Q 124 26 116 27 L 114 25 L 110 21 L 104 21 L 99 23 L 89 24 L 82 27 L 63 27 L 56 24 Q 46 24 40 21 L 34 21 Z " /><path fill="rgb(78,33,12)" stroke="rgb(78,33,12)" stroke-width="1" opacity="0.996078431372549" d="M 83.5 32 L 81 35.5 L 79.5 38 L 80 36.5 L 80.5 33 Q 82 35.5 83.5 32 Z " /><path fill="rgb(78,33,12)" stroke="rgb(78,33,12)" stroke-width="1" opacity="0.996078431372549" d="M 108.5 32 L 109 34.5 L 108 34.5 L 108.5 32 Z " /><path fill="rgb(78,33,12)" stroke="rgb(78,33,12)" stroke-width="1" opacity="0.996078431372549" d="M 111.5 32 L 111 33.5 L 110.5 37 L 110 33.5 L 111.5 32 Z " /><path fill="rgb(78,33,12)" stroke="rgb(78,33,12)" stroke-width="1" opacity="0.996078431372549" d="M 76.5 39 L 75.5 41 L 76.5 39 Z " /><path fill="rgb(78,33,12)" stroke="rgb(78,33,12)" stroke-width="1" opacity="0.996078431372549" d="M 107.5 39 L 108 41.5 L 107 41.5 L 107.5 39 Z " /><path fill="rgb(78,33,12)" stroke="rgb(78,33,12)" stroke-width="1" opacity="0.996078431372549" d="M 75.5 42 L 74.5 44 L 75.5 42 Z " /><path fill="rgb(78,33,12)" stroke="rgb(78,33,12)" stroke-width="1" opacity="0.996078431372549" d="M 109.5 44 L 110 47.5 L 109 47.5 L 109.5 44 Z " /><path fill="rgb(78,33,12)" stroke="rgb(78,33,12)" stroke-width="1" opacity="0.996078431372549" d="M 126.5 46 L 127.5 48 L 126.5 46 Z " /><path fill="rgb(78,33,12)" stroke="rgb(78,33,12)" stroke-width="1" opacity="0.996078431372549" d="M 106.5 47 L 107 48.5 L 105 49.5 L 106.5 47 Z " /><path fill="rgb(78,33,12)" stroke="rgb(78,33,12)" stroke-width="1" opacity="0.996078431372549" d="M 104.5 51 L 103.5 53 L 104.5 51 Z " /><path fill="rgb(78,33,12)" stroke="rgb(78,33,12)" stroke-width="1" opacity="0.996078431372549" d="M 43.5 55 L 45.5 58 L 43.5 55 Z " /><path fill="rgb(78,33,12)" stroke="rgb(78,33,12)" stroke-width="1" opacity="0.996078431372549" d="M 95.5 59 L 94.5 61 L 95.5 59 Z " /><path fill="rgb(78,33,12)" stroke="rgb(78,33,12)" stroke-width="1" opacity="0.996078431372549" d="M 51.5 62 L 52.5 64 L 51.5 62 Z " /><path fill="rgb(78,33,12)" stroke="rgb(78,33,12)" stroke-width="1" opacity="0.996078431372549" d="M 88.5 65 L 88 66.5 L 90.5 70 L 87.5 67 L 85 68.5 L 88.5 65 Z " /><path fill="rgb(78,33,12)" stroke="rgb(78,33,12)" stroke-width="1" opacity="0.996078431372549" d="M 52.5 69 L 51.5 71 L 52.5 69 Z " /><path fill="rgb(78,33,12)" stroke="rgb(78,33,12)" stroke-width="1" opacity="0.996078431372549" d="M 43.5 72 Q 45 75.5 46.5 73 L 48.5 72 L 47.5 74 L 45.5 75 L 43.5 72 Z " /><path fill="rgb(78,33,12)" stroke="rgb(78,33,12)" stroke-width="1" opacity="0.996078431372549" d="M 107.5 72 L 106.5 74 L 107.5 72 Z " /><path fill="rgb(78,33,12)" stroke="rgb(78,33,12)" stroke-width="1" opacity="0.996078431372549" d="M 79.5 73 L 74.5 79 Q 72.3 78.3 73 80.5 L 72 80.5 L 74.5 77 L 79.5 73 Z " /><path fill="rgb(78,33,12)" stroke="rgb(78,33,12)" stroke-width="1" opacity="0.996078431372549" d="M 109.5 73 L 110.5 75 L 109 74.5 L 106.5 78 L 108 75.5 L 109.5 73 Z " /><path fill="rgb(78,33,12)" stroke="rgb(78,33,12)" stroke-width="1" opacity="0.996078431372549" d="M 98.5 75 L 97.5 77 L 96 76.5 L 98.5 75 Z " /><path fill="rgb(78,33,12)" stroke="rgb(78,33,12)" stroke-width="1" opacity="0.996078431372549" d="M 36.5 76 L 38.5 79 L 36.5 76 Z " /><path fill="rgb(78,33,12)" stroke="rgb(78,33,12)" stroke-width="1" opacity="0.996078431372549" d="M 105.5 79 L 103.5 82 L 105.5 79 Z " /><path fill="rgb(78,33,12)" stroke="rgb(78,33,12)" stroke-width="1" opacity="0.996078431372549" d="M 108.5 80 L 107.5 82 L 108.5 80 Z " /><path fill="rgb(78,33,12)" stroke="rgb(78,33,12)" stroke-width="1" opacity="0.996078431372549" d="M 74.5 81 L 76.5 84 L 74.5 81 Z " /><path fill="rgb(78,33,12)" stroke="rgb(78,33,12)" stroke-width="1" opacity="0.996078431372549" d="M 72.5 83 L 75.5 85 L 81.5 92 L 83 91.5 L 79.5 96 L 78 93.5 L 80 90.5 L 72.5 83 Z " /><path fill="rgb(78,33,12)" stroke="rgb(78,33,12)" stroke-width="1" opacity="0.996078431372549" d="M 90.5 83 L 89.5 85 L 90.5 83 Z " /><path fill="rgb(78,33,12)" stroke="rgb(78,33,12)" stroke-width="1" opacity="0.996078431372549" d="M 103.5 83 Q 106.1 82.3 105 85 Q 101.3 83.5 102 86.5 L 100 90 Q 96.7 88.9 98 93 Q 101.3 91.9 100 96 L 93 96.5 L 96 100.5 L 91.5 97 L 89.5 96 L 84.5 100 L 85.5 98 L 97 92 L 103.5 83 Z " /><path fill="rgb(78,33,12)" stroke="rgb(78,33,12)" stroke-width="1" opacity="0.996078431372549" d="M 106.5 83 L 110 88.5 L 108 88.5 L 110 91.5 L 107 89.5 L 105 86.5 L 108 87.5 L 106.5 83 Z " /><path fill="rgb(78,33,12)" stroke="rgb(78,33,12)" stroke-width="1" opacity="0.996078431372549" d="M 79.5 85 L 81.5 88 L 79.5 85 Z " /><path fill="rgb(78,33,12)" stroke="rgb(78,33,12)" stroke-width="1" opacity="0.996078431372549" d="M 37 86 L 39 86.5 L 37 87.5 L 37 86 Z " /><path fill="rgb(78,33,12)" stroke="rgb(78,33,12)" stroke-width="1" opacity="0.996078431372549" d="M 68.5 86 L 66.5 89 L 68.5 86 Z " /><path fill="rgb(78,33,12)" stroke="rgb(78,33,12)" stroke-width="1" opacity="0.996078431372549" d="M 61.5 88 L 60.5 90 L 59 89.5 L 61.5 88 Z " /><path fill="rgb(78,33,12)" stroke="rgb(78,33,12)" stroke-width="1" opacity="0.996078431372549" d="M 46.5 90 L 54 95.5 L 50 98.5 L 49.5 100 L 49 98.5 L 50.5 96 Q 43.5 97.5 44 94.5 L 43.5 93 L 46 91.5 L 46.5 90 Z " /><path fill="rgb(78,33,12)" stroke="rgb(78,33,12)" stroke-width="1" opacity="0.996078431372549" d="M 66.5 93 Q 68.8 93.8 68 97.5 L 66 98.5 L 67 94.5 L 66.5 93 Z " /><path fill="rgb(78,33,12)" stroke="rgb(78,33,12)" stroke-width="1" opacity="0.996078431372549" d="M 64.5 94 L 65 96.5 L 64 96.5 L 64.5 94 Z " /><path fill="rgb(78,33,12)" stroke="rgb(78,33,12)" stroke-width="1" opacity="0.996078431372549" d="M 112.5 94 L 113.5 96 L 112.5 94 Z " /><path fill="rgb(78,33,12)" stroke="rgb(78,33,12)" stroke-width="1" opacity="0.996078431372549" d="M 119.5 94 L 118.5 96 L 119.5 94 Z " /><path fill="rgb(78,33,12)" stroke="rgb(78,33,12)" stroke-width="1" opacity="0.996078431372549" d="M 25.5 95 L 29 95.5 L 25.5 96 L 25.5 95 Z " /><path fill="rgb(78,33,12)" stroke="rgb(78,33,12)" stroke-width="1" opacity="0.996078431372549" d="M 121.5 95 L 122.5 97 L 120 96.5 L 121.5 95 Z " /><path fill="rgb(78,33,12)" stroke="rgb(78,33,12)" stroke-width="1" opacity="0.996078431372549" d="M 55.5 96 L 56.5 98 L 55.5 96 Z " /><path fill="rgb(78,33,12)" stroke="rgb(78,33,12)" stroke-width="1" opacity="0.996078431372549" d="M 21.5 98 L 20.5 100 L 21.5 98 Z " /><path fill="rgb(78,33,12)" stroke="rgb(78,33,12)" stroke-width="1" opacity="0.996078431372549" d="M 58.5 98 L 62 100 L 62.5 98 L 63 99.5 L 60.5 101 L 58.5 98 Z " /><path fill="rgb(78,33,12)" stroke="rgb(78,33,12)" stroke-width="1" opacity="0.996078431372549" d="M 125.5 98 L 126 101.5 L 125 101.5 L 125.5 98 Z " /><path fill="rgb(78,33,12)" stroke="rgb(78,33,12)" stroke-width="1" opacity="0.996078431372549" d="M 81.5 99 L 82.5 101 L 81.5 99 Z " /><path fill="rgb(78,33,12)" stroke="rgb(78,33,12)" stroke-width="1" opacity="0.996078431372549" d="M 35.5 100 L 41.5 106 L 48 100.5 L 41.5 107 L 39.5 105 Q 37.3 105.8 38 103.5 L 35.5 100 Z " /><path fill="rgb(78,33,12)" stroke="rgb(78,33,12)" stroke-width="1" opacity="0.996078431372549" d="M 55.5 100 L 58 101.5 L 56.5 101 Q 54.3 100.3 55 102.5 L 54 102.5 L 55.5 100 Z " /><path fill="rgb(78,33,12)" stroke="rgb(78,33,12)" stroke-width="1" opacity="0.996078431372549" d="M 107.5 100 L 108 101.5 Q 101.9 103.4 102.5 112 L 101 105.5 L 104 105 L 107.5 100 Z " /><path fill="rgb(78,33,12)" stroke="rgb(78,33,12)" stroke-width="1" opacity="0.996078431372549" d="M 97.5 101 L 99.5 104 L 97.5 101 Z " /><path fill="rgb(78,33,12)" stroke="rgb(78,33,12)" stroke-width="1" opacity="0.996078431372549" d="M 20.5 102 L 22 104.5 L 20 105.5 L 20 103.5 L 20.5 102 Z " /><path fill="rgb(78,33,12)" stroke="rgb(78,33,12)" stroke-width="1" opacity="0.996078431372549" d="M 59.5 102 L 60.5 104 L 59.5 102 Z " /><path fill="rgb(78,33,12)" stroke="rgb(78,33,12)" stroke-width="1" opacity="0.996078431372549" d="M 64.5 102 L 63.5 104 L 64.5 102 Z " /><path fill="rgb(78,33,12)" stroke="rgb(78,33,12)" stroke-width="1" opacity="0.996078431372549" d="M 80.5 102 L 83 103 L 82.5 105 L 80.5 102 Z " /><path fill="rgb(78,33,12)" stroke="rgb(78,33,12)" stroke-width="1" opacity="0.996078431372549" d="M 53.5 105 L 54 106.5 L 52.5 109 L 52 107.5 L 53.5 105 Z " /><path fill="rgb(78,33,12)" stroke="rgb(78,33,12)" stroke-width="1" opacity="0.996078431372549" d="M 97.5 105 Q 101.7 106.3 101 111 L 95 110.5 L 100 110 L 97.5 105 Z " /><path fill="rgb(78,33,12)" stroke="rgb(78,33,12)" stroke-width="1" opacity="0.996078431372549" d="M 81.5 106 L 82 108.5 L 79.5 111 L 53.5 111 L 53.5 110 L 79.5 110 L 81 108.5 L 81.5 106 Z " /><path fill="rgb(78,33,12)" stroke="rgb(78,33,12)" stroke-width="1" opacity="0.996078431372549" d="M 94.5 106 L 95 108.5 L 94 108.5 L 94.5 106 Z " /><path fill="rgb(78,33,12)" stroke="rgb(78,33,12)" stroke-width="1" opacity="0.996078431372549" d="M 122.5 108 L 123 109.5 L 120.5 111 L 122.5 108 Z " /><path fill="rgb(50,0,0)" stroke="rgb(50,0,0)" stroke-width="1" opacity="0.6470588235294118" d="M 33.5 21 L 40 21.5 L 33.5 22 L 33.5 21 Z " /><path fill="rgb(50,0,0)" stroke="rgb(50,0,0)" stroke-width="1" opacity="0.6470588235294118" d="M 103.5 21 L 110 21.5 L 103.5 22 L 103.5 21 Z " /><path fill="rgb(50,0,0)" stroke="rgb(50,0,0)" stroke-width="1" opacity="0.6470588235294118" d="M 31.5 22 L 30 24.5 L 29.5 26 L 29 24.5 L 31.5 22 Z " /><path fill="rgb(50,0,0)" stroke="rgb(50,0,0)" stroke-width="1" opacity="0.6470588235294118" d="M 111.5 22 L 113.5 25 L 111.5 22 Z " /><path fill="rgb(50,0,0)" stroke="rgb(50,0,0)" stroke-width="1" opacity="0.6470588235294118" d="M 47.5 23 L 51 23.5 L 47.5 24 L 47.5 23 Z " /><path fill="rgb(50,0,0)" stroke="rgb(50,0,0)" stroke-width="1" opacity="0.6470588235294118" d="M 93.5 23 L 97 23.5 L 93.5 24 L 93.5 23 Z " /><path fill="rgb(50,0,0)" stroke="rgb(50,0,0)" stroke-width="1" opacity="0.6470588235294118" d="M 53.5 24 L 56 24.5 L 53.5 25 L 53.5 24 Z " /><path fill="rgb(50,0,0)" stroke="rgb(50,0,0)" stroke-width="1" opacity="0.6470588235294118" d="M 88.5 24 L 91 24.5 L 88.5 25 L 88.5 24 Z " /><path fill="rgb(50,0,0)" stroke="rgb(50,0,0)" stroke-width="1" opacity="0.6470588235294118" d="M 84.5 25 L 86 25.5 L 82.5 27 L 82.5 26 L 84.5 25 Z " /><path fill="rgb(50,0,0)" stroke="rgb(50,0,0)" stroke-width="1" opacity="0.6470588235294118" d="M 60.5 26 L 62.5 27 L 81 27.5 L 62.5 28 L 60.5 26 Z " /><path fill="rgb(50,0,0)" stroke="rgb(50,0,0)" stroke-width="1" opacity="0.6470588235294118" d="M 114.5 26 L 123 27.5 L 114 28 L 114.5 26 Z " /><path fill="rgb(50,0,0)" stroke="rgb(50,0,0)" stroke-width="1" opacity="0.6470588235294118" d="M 11.5 27 L 29 27.5 L 11.5 28 L 11.5 27 Z " /><path fill="rgb(50,0,0)" stroke="rgb(50,0,0)" stroke-width="1" opacity="0.6470588235294118" d="M 7.5 29 L 6.5 31 L 7.5 29 Z " /><path fill="rgb(50,0,0)" stroke="rgb(50,0,0)" stroke-width="1" opacity="0.6470588235294118" d="M 127.5 31 L 129 33.5 L 128 33.5 L 127.5 31 Z " /><path fill="rgb(50,0,0)" stroke="rgb(50,0,0)" stroke-width="1" opacity="0.6470588235294118" d="M 5.5 36 L 6 38.5 L 5 38.5 L 5.5 36 Z " /><path fill="rgb(50,0,0)" stroke="rgb(50,0,0)" stroke-width="1" opacity="0.6470588235294118" d="M 130.5 39 L 131 41.5 L 130 41.5 L 130.5 39 Z " /><path fill="rgb(50,0,0)" stroke="rgb(50,0,0)" stroke-width="1" opacity="0.6470588235294118" d="M 6.5 40 L 7 42.5 L 6 42.5 L 6.5 40 Z " /><path fill="rgb(50,0,0)" stroke="rgb(50,0,0)" stroke-width="1" opacity="0.6470588235294118" d="M 9.5 50 L 10 52.5 L 9 52.5 L 9.5 50 Z " /><path fill="rgb(50,0,0)" stroke="rgb(50,0,0)" stroke-width="1" opacity="0.6470588235294118" d="M 138.5 67 L 139 70.5 L 138 70.5 L 138.5 67 Z " /><path fill="rgb(50,0,0)" stroke="rgb(50,0,0)" stroke-width="1" opacity="0.6470588235294118" d="M 138.5 73 L 139 76.5 L 138 76.5 L 138.5 73 Z " /><path fill="rgb(50,0,0)" stroke="rgb(50,0,0)" stroke-width="1" opacity="0.6470588235294118" d="M 9.5 91 L 10 93.5 L 9 93.5 L 9.5 91 Z " /><path fill="rgb(50,0,0)" stroke="rgb(50,0,0)" stroke-width="1" opacity="0.6470588235294118" d="M 7.5 98 L 8 100.5 L 6.5 104 L 6 101.5 L 7.5 98 Z " /><path fill="rgb(50,0,0)" stroke="rgb(50,0,0)" stroke-width="1" opacity="0.6470588235294118" d="M 5.5 105 L 6 107.5 L 5 107.5 L 5.5 105 Z " /><path fill="rgb(50,0,0)" stroke="rgb(50,0,0)" stroke-width="1" opacity="0.6470588235294118" d="M 87 107 Q 90 106 89 109 Q 86 110 87 107 Z " /><path fill="rgb(50,0,0)" stroke="rgb(50,0,0)" stroke-width="1" opacity="0.6470588235294118" d="M 5.5 109 L 8 114.5 L 6 113.5 L 5.5 109 Z " /><path fill="rgb(50,0,0)" stroke="rgb(50,0,0)" stroke-width="1" opacity="0.6470588235294118" d="M 128.5 110 L 129 111.5 L 127 112.5 L 128.5 110 Z " /><path fill="rgb(50,0,0)" stroke="rgb(50,0,0)" stroke-width="1" opacity="0.6470588235294118" d="M 47.5 111 L 50.5 115 L 52 115.5 L 50.5 116 L 47 112.5 L 47.5 111 Z " /><path fill="rgb(50,0,0)" stroke="rgb(50,0,0)" stroke-width="1" opacity="0.6470588235294118" d="M 89.5 111 L 93 115.5 L 89 112.5 L 89.5 111 Z " /><path fill="rgb(50,0,0)" stroke="rgb(50,0,0)" stroke-width="1" opacity="0.6470588235294118" d="M 85.5 113 L 83.5 116 L 82 115.5 L 85.5 113 Z " /><path fill="rgb(50,0,0)" stroke="rgb(50,0,0)" stroke-width="1" opacity="0.6470588235294118" d="M 11.5 116 L 25.5 116 L 29 119.5 L 25.5 117 L 11.5 117 L 11.5 116 Z " /><path fill="rgb(50,0,0)" stroke="rgb(50,0,0)" stroke-width="1" opacity="0.6470588235294118" d="M 45.5 116 L 40.5 122 L 39 121.5 L 45.5 116 Z " /><path fill="rgb(50,0,0)" stroke="rgb(50,0,0)" stroke-width="1" opacity="0.6470588235294118" d="M 53.5 116 L 80 116.5 L 53.5 117 L 53.5 116 Z " /><path fill="rgb(50,0,0)" stroke="rgb(50,0,0)" stroke-width="1" opacity="0.6470588235294118" d="M 95.5 116 Q 99.3 115.3 100 117.5 L 98.5 117 Q 94.5 117.8 95.5 116 Z " /><path fill="rgb(50,0,0)" stroke="rgb(50,0,0)" stroke-width="1" opacity="0.6470588235294118" d="M 118.5 116 L 123 116.5 Q 116.1 116.1 114.5 121 L 118.5 116 Z " /><path fill="rgb(50,0,0)" stroke="rgb(50,0,0)" stroke-width="1" opacity="0.6470588235294118" d="M 101.5 119 L 107 122.5 L 105.5 123 L 101.5 119 Z " /><path fill="rgb(50,0,0)" stroke="rgb(50,0,0)" stroke-width="1" opacity="0.6470588235294118" d="M 31.5 121 L 35 122.5 L 33.5 123 L 31.5 121 Z " /><path fill="rgb(35,17,23)" stroke="rgb(35,17,23)" stroke-width="1" opacity="1" d="M 79.5 36 L 79 37.5 L 73.5 44 L 77 39.5 L 79.5 36 Z " /><path fill="rgb(35,17,23)" stroke="rgb(35,17,23)" stroke-width="1" opacity="1" d="M 34.5 38 L 35 41.5 L 34 41.5 L 34.5 38 Z " /><path fill="rgb(35,17,23)" stroke="rgb(35,17,23)" stroke-width="1" opacity="1" d="M 38.5 51 L 37.5 53 L 38.5 51 Z " /><path fill="rgb(35,17,23)" stroke="rgb(35,17,23)" stroke-width="1" opacity="1" d="M 38.5 54 L 39.5 56 L 38.5 54 Z " /><path fill="rgb(35,17,23)" stroke="rgb(35,17,23)" stroke-width="1" opacity="1" d="M 41.5 56 L 42.5 58 L 41.5 56 Z " /><path fill="rgb(35,17,23)" stroke="rgb(35,17,23)" stroke-width="1" opacity="1" d="M 96.5 59 L 99 59.5 L 96.5 60 L 96.5 59 Z " /><path fill="rgb(35,17,23)" stroke="rgb(35,17,23)" stroke-width="1" opacity="1" d="M 45.5 60 L 48 61 L 49 66.5 L 48 66.5 L 48 63.5 L 45.5 60 Z " /><path fill="rgb(35,17,23)" stroke="rgb(35,17,23)" stroke-width="1" opacity="1" d="M 44.5 72 L 47.5 74 L 49 73.5 L 46.5 77 L 44.5 72 Z " /><path fill="rgb(35,17,23)" stroke="rgb(35,17,23)" stroke-width="1" opacity="1" d="M 35.5 73 L 34.5 75 L 35.5 73 Z " /><path fill="rgb(35,17,23)" stroke="rgb(35,17,23)" stroke-width="1" opacity="1" d="M 34.5 76 L 35.5 78 Q 32.7 78.7 34.5 76 Z " /><path fill="rgb(35,17,23)" stroke="rgb(35,17,23)" stroke-width="1" opacity="1" d="M 69.5 81 L 70 84 L 67 83.5 L 69.5 81 Z " /><path fill="rgb(35,17,23)" stroke="rgb(35,17,23)" stroke-width="1" opacity="1" d="M 38.5 83 L 39 86 L 37 85.5 L 38.5 83 Z " /><path fill="rgb(35,17,23)" stroke="rgb(35,17,23)" stroke-width="1" opacity="1" d="M 36.5 87 L 37 89.5 L 35 88.5 L 36.5 87 Z " /><path fill="rgb(35,17,23)" stroke="rgb(35,17,23)" stroke-width="1" opacity="1" d="M 82.5 88 Q 85.5 89.5 82.5 91 L 82.5 88 Z " /><path fill="rgb(35,17,23)" stroke="rgb(35,17,23)" stroke-width="1" opacity="1" d="M 33.5 91 L 33 92.5 Q 33.8 94.8 31.5 94 L 29 95.5 L 33.5 91 Z " /><path fill="rgb(35,17,23)" stroke="rgb(35,17,23)" stroke-width="1" opacity="1" d="M 21.5 97 L 18.5 101 L 19 99.5 Q 18.3 97.3 20.5 98 L 21.5 97 Z " /><path fill="rgb(35,17,23)" stroke="rgb(35,17,23)" stroke-width="1" opacity="1" d="M 11.5 110 L 24 110.5 L 11.5 111 L 11.5 110 Z " /><path fill="rgb(238,131,37)" stroke="rgb(238,131,37)" stroke-width="1" opacity="1" d="M 112 34 L 121.5 34 L 123 35.5 L 132 70 L 129.5 71 L 106.5 71 L 104 67.5 L 102 58.5 L 109 52.5 L 112 34 Z " /><path fill="rgb(238,131,37)" stroke="rgb(238,131,37)" stroke-width="1" opacity="1" d="M 71.5 42 L 74 42.5 Q 71.9 45.8 71.5 42 Z " /><path fill="rgb(238,131,37)" stroke="rgb(238,131,37)" stroke-width="1" opacity="1" d="M 40.5 72 L 54 84.5 L 58 89.5 L 61 91 L 62.5 94 Q 64.8 93.3 64 95.5 L 60.5 100 L 44 87.5 L 38 76.5 L 39.5 77 L 43 76 L 41.5 73 L 40.5 72 Z " /><path fill="rgb(238,131,37)" stroke="rgb(238,131,37)" stroke-width="1" opacity="1" d="M 102.5 72 L 105 73.5 L 103.5 73 L 101.5 74 L 102.5 72 Z " /><path fill="rgb(238,131,37)" stroke="rgb(238,131,37)" stroke-width="1" opacity="1" d="M 106.5 74 L 107.5 76 Q 104.7 76.7 106.5 74 Z " /><path fill="rgb(238,131,37)" stroke="rgb(238,131,37)" stroke-width="1" opacity="1" d="M 99.5 75 L 106 77 L 97.5 90 L 82.5 100 L 80 94.5 L 87 89 L 87 87.5 L 99.5 75 Z " /><path fill="rgb(238,131,37)" stroke="rgb(238,131,37)" stroke-width="1" opacity="1" d="M 38.5 88 L 42 94.5 L 35 100.5 L 42 109.5 L 37.5 116 L 34.5 116 L 30 113 L 30 111.5 L 21 102.5 L 21 99.5 Q 22.6 95.1 29.5 96 L 33.5 99 L 34 97.5 L 32 95.5 L 38 89.5 L 38.5 88 Z " /><path fill="rgb(238,131,37)" stroke="rgb(238,131,37)" stroke-width="1" opacity="1" d="M 105.5 89 L 112 95.5 L 109.5 98 L 106.5 100 L 102 93.5 L 105.5 89 Z " /><path fill="rgb(238,131,37)" stroke="rgb(238,131,37)" stroke-width="1" opacity="1" d="M 113.5 96 Q 122.5 94.5 124 100.5 L 108.5 117 L 103 112.5 Q 101.5 106.5 104.5 105 Q 106.8 105.8 106 103.5 L 113.5 96 Z " /><path fill="rgb(59,135,230)" stroke="rgb(59,135,230)" stroke-width="1" opacity="1" d="M 12.5 34 L 32.5 34 L 33 36.5 L 34 37.5 L 35 50.5 L 42.5 59 L 47 62.5 L 48 70.5 L 45.5 71 L 40.5 70 L 39.5 71 L 22.5 71 L 21 69.5 L 11 35.5 L 12.5 34 Z " /><path fill="rgb(59,135,230)" stroke="rgb(59,135,230)" stroke-width="1" opacity="1" d="M 82.5 74 L 84 77 Q 80.5 78.1 82.5 74 Z " /><path fill="rgb(59,135,230)" stroke="rgb(59,135,230)" stroke-width="1" opacity="1" d="M 76.5 75 Q 79.5 76.5 76.5 78 L 76.5 75 Z " /><path fill="rgb(59,135,230)" stroke="rgb(59,135,230)" stroke-width="1" opacity="1" d="M 79.5 78 L 76.5 82 L 79.5 78 Z " /><path fill="rgb(59,135,230)" stroke="rgb(59,135,230)" stroke-width="1" opacity="1" d="M 36.5 82 Q 39.5 83.5 36.5 85 L 36.5 82 Z " /><path fill="rgb(221,227,232)" stroke="rgb(221,227,232)" stroke-width="1" opacity="1" d="M 35 27 L 56.5 31 L 63 36.5 L 71.5 47 Q 73.8 47.8 73 45.5 L 84.5 32 L 107.5 27 Q 110.3 28.3 108 29.5 L 106 47.5 L 98.5 57 L 61 87 Q 62.1 89.7 59.5 89 L 47 76.5 L 49 74.5 L 56 65.5 L 39 50.5 L 37 47.5 L 35 27 Z M 64 55 L 61 59 L 64 57 L 64 55 Z M 60 60 L 56 65 L 60 62 L 60 60 Z " /><path fill="rgb(221,227,232)" stroke="rgb(221,227,232)" stroke-width="1" opacity="1" d="M 87.5 68 L 96 75.5 L 83.5 89 L 77 81 L 74 79.5 L 87.5 68 Z M 83 74 Q 80 78 84 77 L 83 74 Z " /><path fill="rgb(221,227,232)" stroke="rgb(221,227,232)" stroke-width="1" opacity="1" d="M 39 73 L 43 74.5 Q 43.8 76.8 41.5 76 L 39.5 77 L 37 75.5 L 39 75 L 39 73 Z " /><path fill="rgb(221,227,232)" stroke="rgb(221,227,232)" stroke-width="1" opacity="1" d="M 102.5 73 L 106 74 Q 107.7 78.1 103.5 77 L 100 74.5 L 102.5 73 Z " /><path fill="rgb(109,156,49)" stroke="rgb(109,156,49)" stroke-width="1" opacity="1" d="M 37.5 27 L 40 27.5 L 37.5 28 L 37.5 27 Z " /><path fill="rgb(109,156,49)" stroke="rgb(109,156,49)" stroke-width="1" opacity="1" d="M 42.5 28 L 45 28.5 L 42.5 29 L 42.5 28 Z " /><path fill="rgb(109,156,49)" stroke="rgb(109,156,49)" stroke-width="1" opacity="1" d="M 99.5 28 L 102 28.5 L 99.5 29 L 99.5 28 Z " /><path fill="rgb(109,156,49)" stroke="rgb(109,156,49)" stroke-width="1" opacity="1" d="M 108.5 29 L 109 31.5 L 108 31.5 L 108.5 29 Z " /><path fill="rgb(109,156,49)" stroke="rgb(109,156,49)" stroke-width="1" opacity="1" d="M 59.5 32 L 62.5 36 L 59.5 32 Z " /><path fill="rgb(109,156,49)" stroke="rgb(109,156,49)" stroke-width="1" opacity="1" d="M 64 33 L 79.5 33 L 80 35.5 L 75 42 L 71 42.5 L 71.5 44 L 65 36.5 L 64 33 Z " /><path fill="rgb(109,156,49)" stroke="rgb(109,156,49)" stroke-width="1" opacity="1" d="M 107.5 34 L 108 38.5 L 107 38.5 L 107.5 34 Z " /><path fill="rgb(109,156,49)" stroke="rgb(109,156,49)" stroke-width="1" opacity="1" d="M 63.5 37 L 64.5 39 L 63.5 37 Z " /><path fill="rgb(109,156,49)" stroke="rgb(109,156,49)" stroke-width="1" opacity="1" d="M 77.5 40 L 76.5 42 L 77.5 40 Z " /><path fill="rgb(109,156,49)" stroke="rgb(109,156,49)" stroke-width="1" opacity="1" d="M 36.5 41 L 37 44.5 L 36 44.5 L 36.5 41 Z " /><path fill="rgb(109,156,49)" stroke="rgb(109,156,49)" stroke-width="1" opacity="1" d="M 68.5 43 L 70.5 46 L 68.5 43 Z " /><path fill="rgb(109,156,49)" stroke="rgb(109,156,49)" stroke-width="1" opacity="1" d="M 106.5 43 L 107 46.5 L 106 46.5 L 106.5 43 Z " /><path fill="rgb(109,156,49)" stroke="rgb(109,156,49)" stroke-width="1" opacity="1" d="M 38.5 49 L 43 54.5 L 38 50.5 L 38.5 49 Z " /><path fill="rgb(109,156,49)" stroke="rgb(109,156,49)" stroke-width="1" opacity="1" d="M 67.5 51 L 64 55.5 L 56.5 65 L 56 63.5 L 67.5 51 Z " /><path fill="rgb(109,156,49)" stroke="rgb(109,156,49)" stroke-width="1" opacity="1" d="M 97.5 57 L 96.5 59 L 97.5 57 Z " /><path fill="rgb(109,156,49)" stroke="rgb(109,156,49)" stroke-width="1" opacity="1" d="M 49.5 60 L 50.5 62 L 49.5 60 Z " /><path fill="rgb(109,156,49)" stroke="rgb(109,156,49)" stroke-width="1" opacity="1" d="M 91.5 62 L 89.5 65 L 91.5 62 Z " /><path fill="rgb(109,156,49)" stroke="rgb(109,156,49)" stroke-width="1" opacity="1" d="M 54.5 67 L 53.5 69 L 54.5 67 Z " /><path fill="rgb(109,156,49)" stroke="rgb(109,156,49)" stroke-width="1" opacity="1" d="M 85.5 67 L 88 67.5 L 78.5 76 L 80 73.5 L 85.5 67 Z " /><path fill="rgb(109,156,49)" stroke="rgb(109,156,49)" stroke-width="1" opacity="1" d="M 91.5 70 L 92.5 72 L 91.5 70 Z " /><path fill="rgb(109,156,49)" stroke="rgb(109,156,49)" stroke-width="1" opacity="1" d="M 42.5 72 L 45.5 76 L 42.5 72 Z " /><path fill="rgb(109,156,49)" stroke="rgb(109,156,49)" stroke-width="1" opacity="1" d="M 48.5 74 L 47.5 76 L 48.5 74 Z " /><path fill="rgb(109,156,49)" stroke="rgb(109,156,49)" stroke-width="1" opacity="1" d="M 36.5 75 L 38.5 78 L 36.5 75 Z " /><path fill="rgb(109,156,49)" stroke="rgb(109,156,49)" stroke-width="1" opacity="1" d="M 95.5 77 L 84.5 89 L 95.5 77 Z " /><path fill="rgb(109,156,49)" stroke="rgb(109,156,49)" stroke-width="1" opacity="1" d="M 72.5 78 L 78.5 85 L 73 81 L 72.5 79 L 70 80.5 L 72.5 78 Z " /><path fill="rgb(109,156,49)" stroke="rgb(109,156,49)" stroke-width="1" opacity="1" d="M 67.5 82 L 62.5 88 L 67.5 82 Z " /><path fill="rgb(109,156,49)" stroke="rgb(109,156,49)" stroke-width="1" opacity="1" d="M 71.5 84 L 80 90.5 L 77 96.5 L 82 105.5 L 79.5 110 L 53.5 110 L 53 107.5 L 55 101 L 60.5 104 L 63.5 104 L 68 97.5 L 68 94.5 L 65 93 L 64 90.5 L 71.5 84 Z " /><path fill="rgb(168,50,33)" stroke="rgb(168,50,33)" stroke-width="1" opacity="1" d="M 111 33 L 121.5 33 L 123 34.5 L 121.5 34 L 112.5 34 L 112 35.5 L 111 35.5 L 111 33 Z " /><path fill="rgb(168,50,33)" stroke="rgb(168,50,33)" stroke-width="1" opacity="1" d="M 110.5 37 L 111 44.5 L 110 44.5 L 110.5 37 Z " /><path fill="rgb(168,50,33)" stroke="rgb(168,50,33)" stroke-width="1" opacity="1" d="M 126.5 47 L 127 49.5 L 126 49.5 L 126.5 47 Z " /><path fill="rgb(168,50,33)" stroke="rgb(168,50,33)" stroke-width="1" opacity="1" d="M 108.5 51 L 109 52.5 L 104 56.5 L 108.5 51 Z " /><path fill="rgb(168,50,33)" stroke="rgb(168,50,33)" stroke-width="1" opacity="1" d="M 128.5 54 L 129 56.5 L 128 56.5 L 128.5 54 Z " /><path fill="rgb(168,50,33)" stroke="rgb(168,50,33)" stroke-width="1" opacity="1" d="M 131.5 65 Q 133.9 68.1 133 74.5 L 126 98 L 119.5 94 L 114.5 94 L 112 91.5 L 110 88.5 L 107 82.5 L 111 77.5 L 111 74.5 L 105 70.5 L 106.5 71 L 129.5 71 L 132 70 L 131.5 65 Z " /><path fill="rgb(168,50,33)" stroke="rgb(168,50,33)" stroke-width="1" opacity="1" d="M 102.5 71 L 101.5 73 L 102.5 71 Z " /><path fill="rgb(168,50,33)" stroke="rgb(168,50,33)" stroke-width="1" opacity="1" d="M 48.5 78 L 60 90.5 L 58 89.5 L 54 84.5 L 48.5 78 Z " /><path fill="rgb(168,50,33)" stroke="rgb(168,50,33)" stroke-width="1" opacity="1" d="M 94.5 79 L 91.5 83 L 94.5 79 Z " /><path fill="rgb(168,50,33)" stroke="rgb(168,50,33)" stroke-width="1" opacity="1" d="M 40.5 81 L 41.5 83 L 40.5 81 Z " /><path fill="rgb(168,50,33)" stroke="rgb(168,50,33)" stroke-width="1" opacity="1" d="M 39 84 L 43 84 L 43 85.5 L 46 91.5 L 43 93.5 L 44 96 L 51 96.5 L 49 100 L 41 106.5 L 41.5 108 L 38.5 103 Q 37.3 105.3 36 102.5 L 36 100.5 L 42 94.5 L 38.5 88 L 32 95.5 L 35 99.5 L 31.5 97 L 30 96.5 L 31 94 L 37 89.5 L 39 84 Z " /><path fill="rgb(168,50,33)" stroke="rgb(168,50,33)" stroke-width="1" opacity="1" d="M 101.5 84 L 105 85 L 113 96.5 L 104 103.5 Q 104.8 106.1 101.5 105 L 95 99.5 L 93 96.5 L 100 96 L 100 93 Q 96.7 94.1 98 90 Q 100.7 91.1 100 88.5 L 100 86.5 L 101.5 84 Z M 106 89 L 102 94 L 107 100 L 110 98 L 112 96 L 106 89 Z " /><path fill="rgb(168,50,33)" stroke="rgb(168,50,33)" stroke-width="1" opacity="1" d="M 88.5 85 L 87.5 87 L 88.5 85 Z " /><path fill="rgb(168,50,33)" stroke="rgb(168,50,33)" stroke-width="1" opacity="1" d="M 96.5 90 L 94.5 93 L 92.5 94 L 93.5 92 L 96.5 90 Z " /><path fill="rgb(168,50,33)" stroke="rgb(168,50,33)" stroke-width="1" opacity="1" d="M 48.5 91 L 49.5 93 L 48.5 91 Z " /><path fill="rgb(168,50,33)" stroke="rgb(168,50,33)" stroke-width="1" opacity="1" d="M 61.5 92 L 62.5 94 L 61.5 92 Z " /><path fill="rgb(168,50,33)" stroke="rgb(168,50,33)" stroke-width="1" opacity="1" d="M 114.5 95 L 118 95.5 L 114.5 96 L 114.5 95 Z " /><path fill="rgb(168,50,33)" stroke="rgb(168,50,33)" stroke-width="1" opacity="1" d="M 63.5 96 L 62.5 98 L 63.5 96 Z " /><path fill="rgb(168,50,33)" stroke="rgb(168,50,33)" stroke-width="1" opacity="1" d="M 121.5 97 L 122.5 99 L 121.5 97 Z " /><path fill="rgb(168,50,33)" stroke="rgb(168,50,33)" stroke-width="1" opacity="1" d="M 123.5 102 L 110.5 116 L 123.5 102 Z " /><path fill="rgb(168,50,33)" stroke="rgb(168,50,33)" stroke-width="1" opacity="1" d="M 22.5 104 L 25.5 108 L 22.5 104 Z " /><path fill="rgb(168,50,33)" stroke="rgb(168,50,33)" stroke-width="1" opacity="1" d="M 95 105 L 100 108.5 L 100 110 L 95 110 L 95 105 Z " /><path fill="rgb(168,50,33)" stroke="rgb(168,50,33)" stroke-width="1" opacity="1" d="M 27.5 109 L 29.5 112 L 27.5 109 Z " /><path fill="rgb(168,50,33)" stroke="rgb(168,50,33)" stroke-width="1" opacity="1" d="M 31.5 113 Q 32.3 116.7 37.5 116 L 40 114.5 Q 39.3 117.8 34.5 117 L 31.5 113 Z " /><path fill="rgb(168,50,33)" stroke="rgb(168,50,33)" stroke-width="1" opacity="1" d="M 104.5 114 L 105.5 116 L 104.5 114 Z " /><path fill="rgb(32,97,179)" stroke="rgb(32,97,179)" stroke-width="1" opacity="1" d="M 12.5 33 L 32.5 33 L 34 34.5 L 33.5 37 L 33 34 L 12.5 34 L 11.5 35 L 12.5 33 Z " /><path fill="rgb(32,97,179)" stroke="rgb(32,97,179)" stroke-width="1" opacity="1" d="M 34.5 42 L 35 46.5 L 34 46.5 L 34.5 42 Z " /><path fill="rgb(32,97,179)" stroke="rgb(32,97,179)" stroke-width="1" opacity="1" d="M 47.5 63 L 48 65.5 L 47 65.5 L 47.5 63 Z " /><path fill="rgb(32,97,179)" stroke="rgb(32,97,179)" stroke-width="1" opacity="1" d="M 48.5 67 L 49 72 L 44 71.5 L 46.5 70 L 48 70.5 L 48.5 67 Z " /><path fill="rgb(32,97,179)" stroke="rgb(32,97,179)" stroke-width="1" opacity="1" d="M 21.5 70 L 22.5 71 L 39 71.5 L 34 74.5 Q 32.1 79.9 35.5 79 L 38 82.5 L 36 82.5 L 36.5 85 L 38 84.5 L 30.5 94 L 25.5 94 L 19 98 L 17 102.5 L 19 103 L 24 109.5 L 11 110 L 13 99.5 L 15 96.5 Q 16.5 85 21 76.5 L 21.5 70 Z " /><path fill="rgb(51,0,0)" stroke="rgb(51,0,0)" stroke-width="1" opacity="0.996078431372549" d="M 32.5 22 L 42.5 22 L 47.5 24 L 56.5 25 L 62.5 28 L 80.5 28 L 86.5 25 L 96.5 24 L 100.5 22 L 110.5 22 Q 114.8 23.3 114 28 L 123.5 28 L 127 30.5 L 139 72.5 L 129 109.5 L 125.5 115 L 118.5 116 Q 115.3 121.8 107.5 123 L 100 119 L 98.5 116 Q 91.3 117.3 90 112.5 L 89 106.5 L 89.5 105 Q 87.3 104.3 88 106.5 L 86 112.5 L 83.5 115 L 81.5 116 L 52.5 116 L 48 112.5 L 47.5 111 Q 46.1 118.1 40.5 121 L 35.5 123 Q 28.7 121.3 25.5 116 L 10.5 116 L 7 113.5 L 5 108.5 L 16 71.5 L 5 35.5 L 6 31.5 L 8.5 29 L 10.5 28 L 29 28 L 32.5 22 Z M 34 27 L 34 29 L 35 30 L 28 30 L 28 33 L 13 33 L 11 35 L 11 40 L 21 70 L 21 75 L 12 102 L 11 111 L 24 111 L 25 113 Q 24 115 28 114 L 29 111 L 35 117 L 38 117 Q 43 115 42 107 L 50 100 L 53 96 L 55 96 L 61 101 L 63 100 Q 62 96 65 97 L 66 94 L 67 97 L 63 104 L 56 100 L 52 108 L 53 110 L 54 111 L 80 111 L 82 109 L 83 105 Q 84 102 82 103 L 77 97 L 80 96 L 83 101 L 90 96 L 97 102 L 94 102 L 94 109 L 95 110 L 95 111 L 100 111 L 100 114 Q 105 113 107 117 Q 112 118 113 114 Q 121 117 118 109 L 126 102 L 126 97 L 133 77 L 133 68 L 127 50 L 128 48 L 126 46 Q 126 37 122 33 L 118 33 L 118 30 L 109 30 L 109 27 L 88 30 L 84 32 Q 82 35 81 33 L 71 33 L 70 30 L 59 30 L 58 31 Q 47 27 34 27 Z M 123 108 L 121 111 L 123 110 L 123 108 Z " /><path fill="rgb(51,0,0)" stroke="rgb(51,0,0)" stroke-width="1" opacity="0.996078431372549" d="M 34.5 36 Q 37 37 36 41.5 L 35 41.5 L 34.5 36 Z " /><path fill="rgb(51,0,0)" stroke="rgb(51,0,0)" stroke-width="1" opacity="0.996078431372549" d="M 36.5 47 L 38 52 Q 33.9 53.2 36.5 47 Z " /><path fill="rgb(51,0,0)" stroke="rgb(51,0,0)" stroke-width="1" opacity="0.996078431372549" d="M 46.5 58 L 47.5 60 Q 44.7 60.7 46.5 58 Z " /><path fill="rgb(51,0,0)" stroke="rgb(51,0,0)" stroke-width="1" opacity="0.996078431372549" d="M 95.5 60 L 100.5 61 L 102 60.5 L 101 64.5 L 102.5 67 L 104 66.5 Q 105.1 69.8 102.5 69 L 100 70 L 101 72.5 L 99.5 72 L 96 72 L 96 66 L 89.5 66 L 89.5 65 Q 91.8 65.8 91 63.5 L 95.5 60 Z " /><path fill="rgb(51,0,0)" stroke="rgb(51,0,0)" stroke-width="1" opacity="0.996078431372549" d="M 108.5 73 L 110 75.5 L 109 75.5 L 108.5 73 Z " /><path fill="rgb(51,0,0)" stroke="rgb(51,0,0)" stroke-width="1" opacity="0.996078431372549" d="M 35.5 74 L 37 77.5 L 34 75.5 L 35.5 74 Z " /><path fill="rgb(51,0,0)" stroke="rgb(51,0,0)" stroke-width="1" opacity="0.996078431372549" d="M 109.5 78 L 107.5 81 L 109.5 78 Z " /><path fill="rgb(51,0,0)" stroke="rgb(51,0,0)" stroke-width="1" opacity="0.996078431372549" d="M 103.5 82 L 105 82.5 L 102.5 84 L 103.5 82 Z " /><path fill="rgb(51,0,0)" stroke="rgb(51,0,0)" stroke-width="1" opacity="0.996078431372549" d="M 67.5 84 Q 71.3 83 70 86 L 64 90.5 L 63.5 94 Q 60.7 92.8 63 91.5 L 62 88.5 L 64 88 Q 62.9 85.3 65.5 86 L 67.5 84 Z " /><path fill="rgb(51,0,0)" stroke="rgb(51,0,0)" stroke-width="1" opacity="0.996078431372549" d="M 35.5 89 L 36 90.5 L 33 92.5 L 35.5 89 Z " /><path fill="rgb(51,0,0)" stroke="rgb(51,0,0)" stroke-width="1" opacity="0.996078431372549" d="M 110.5 92 L 114 93.5 L 113.5 95 L 112.5 93 Q 110.7 95.5 110.5 92 Z " /><path fill="rgb(51,0,0)" stroke="rgb(51,0,0)" stroke-width="1" opacity="0.996078431372549" d="M 26.5 94 L 30 94.5 L 26.5 95 L 26.5 94 Z " /><path fill="rgb(51,0,0)" stroke="rgb(51,0,0)" stroke-width="1" opacity="0.996078431372549" d="M 19.5 100 L 20 102 L 18 101.5 L 19.5 100 Z " /><path fill="rgb(41,0,0)" stroke="rgb(41,0,0)" stroke-width="1" opacity="1" d="M 28 30 L 35 30 L 35 35.5 L 34 35.5 L 34 33 L 28 33 L 28 30 Z " /><path fill="rgb(41,0,0)" stroke="rgb(41,0,0)" stroke-width="1" opacity="1" d="M 58.5 30 L 69.5 30 L 70 33 L 64 33 L 64 35.5 L 70 44 L 74 44.5 L 71 46.5 L 58.5 30 Z " /><path fill="rgb(41,0,0)" stroke="rgb(41,0,0)" stroke-width="1" opacity="1" d="M 109 30 L 118 30 L 118 33 L 111.5 32 L 110 33.5 L 110 42.5 L 108 52.5 L 100.5 61 L 97 58.5 L 105 51.5 L 105 50 L 107 49.5 L 107 42.5 L 109 30 Z " /><path fill="rgb(41,0,0)" stroke="rgb(41,0,0)" stroke-width="1" opacity="1" d="M 35.5 42 L 36 47.5 L 35 47.5 L 35.5 42 Z " /><path fill="rgb(41,0,0)" stroke="rgb(41,0,0)" stroke-width="1" opacity="1" d="M 38.5 52 L 44 56.5 Q 43.3 59.1 46 58 L 46 60 L 48.5 60 L 54 64 L 55 66.5 L 49.5 73 L 49 63.5 L 48 61 L 43 59 L 41.5 56 L 38 53.5 L 38.5 52 Z " /><path fill="rgb(41,0,0)" stroke="rgb(41,0,0)" stroke-width="1" opacity="1" d="M 101.5 62 L 103 66.5 L 102 66.5 L 101.5 62 Z " /><path fill="rgb(41,0,0)" stroke="rgb(41,0,0)" stroke-width="1" opacity="1" d="M 88.5 66 L 96 66 L 96 72 L 100 72 Q 98.9 69.3 101.5 70 L 104 69 L 105 71.5 L 103.5 71 L 100 72 L 97.5 76 Q 95.3 76.8 96 74.5 L 88.5 66 Z " /><path fill="rgb(41,0,0)" stroke="rgb(41,0,0)" stroke-width="1" opacity="1" d="M 40.5 71 L 44 71.5 L 40.5 72 L 40.5 71 Z " /><path fill="rgb(41,0,0)" stroke="rgb(41,0,0)" stroke-width="1" opacity="1" d="M 110.5 75 L 111 76.5 L 106 83.5 L 113 93.5 L 108 89.5 L 104 81.5 L 106 78 L 108 78 Q 106.9 75.3 109.5 76 L 110.5 75 Z " /><path fill="rgb(41,0,0)" stroke="rgb(41,0,0)" stroke-width="1" opacity="1" d="M 35.5 78 Q 38.8 76.9 38 79.5 L 41.5 84 L 38 82.5 L 37 79 L 35.5 78 Z " /><path fill="rgb(41,0,0)" stroke="rgb(41,0,0)" stroke-width="1" opacity="1" d="M 70 81 L 78 84 Q 76.9 86.7 79.5 86 Q 82.8 86.8 82 91.5 L 78.5 96 L 78 94.5 L 81 90.5 L 80 88 L 74 85 Q 75.1 82.3 72.5 83 L 70 84.5 L 70 81 Z " /><path fill="rgb(41,0,0)" stroke="rgb(41,0,0)" stroke-width="1" opacity="1" d="M 61.5 89 Q 64.5 88.2 63 92 L 60 90.5 L 61.5 89 Z " /><path fill="rgb(41,0,0)" stroke="rgb(41,0,0)" stroke-width="1" opacity="1" d="M 64.5 93 L 67 94.5 L 66.5 96 L 66 94 L 64.5 93 Z " /><path fill="rgb(41,0,0)" stroke="rgb(41,0,0)" stroke-width="1" opacity="1" d="M 114.5 94 L 118.5 94 L 125 98.5 L 124.5 102 L 120.5 96 L 114.5 95 L 114.5 94 Z " /><path fill="rgb(41,0,0)" stroke="rgb(41,0,0)" stroke-width="1" opacity="1" d="M 18.5 102 Q 20.8 101.3 20 103.5 L 26 108.5 Q 25.3 111.1 28 110 L 28 114 Q 24.3 115.5 25 112.5 L 18.5 102 Z " /><path fill="rgb(41,0,0)" stroke="rgb(41,0,0)" stroke-width="1" opacity="1" d="M 94 102 Q 98.7 101 100 104.5 L 100 106 L 102 106.5 L 102 111.5 L 103 114 Q 98.9 115.7 100 111.5 L 101 108.5 L 96 105 L 95.5 103 L 94.5 106 L 94 102 Z " /><path fill="rgb(41,0,0)" stroke="rgb(41,0,0)" stroke-width="1" opacity="1" d="M 117.5 109 L 118 114 L 113 113.5 L 117.5 109 Z " /></svg>